<mxfile host="65bd71144e">
    <diagram id="a_lwmjhS-t0o144CuFog" name="Page-1">
        <mxGraphModel dx="1230" dy="479" grid="1" gridSize="10" guides="1" tooltips="1" connect="1" arrows="1" fold="1" page="1" pageScale="1" pageWidth="827" pageHeight="1169" background="#ffffff" math="0" shadow="0">
            <root>
                <mxCell id="0"/>
                <mxCell id="1" parent="0"/>
                <mxCell id="20" style="edgeStyle=elbowEdgeStyle;rounded=0;html=1;exitX=0.478;exitY=0.002;exitDx=0;exitDy=0;entryX=1;entryY=0.5;entryDx=0;entryDy=0;fontSize=11;fontColor=#000000;strokeColor=#000000;exitPerimeter=0;" parent="1" source="2" edge="1">
                    <mxGeometry relative="1" as="geometry">
                        <mxPoint x="414" y="192" as="sourcePoint"/>
                        <mxPoint x="260" y="67" as="targetPoint"/>
                        <Array as="points">
                            <mxPoint x="410" y="132"/>
                        </Array>
                    </mxGeometry>
                </mxCell>
                <mxCell id="24" style="edgeStyle=elbowEdgeStyle;rounded=0;html=1;exitX=0.383;exitY=0.015;exitDx=0;exitDy=0;fontSize=11;fontColor=#000000;strokeColor=#000000;exitPerimeter=0;entryX=1;entryY=0.75;entryDx=0;entryDy=0;" parent="1" source="2" edge="1">
                    <mxGeometry relative="1" as="geometry">
                        <mxPoint x="394.14" y="204.42000000000002" as="sourcePoint"/>
                        <mxPoint x="260" y="89.5" as="targetPoint"/>
                        <Array as="points">
                            <mxPoint x="394" y="156"/>
                        </Array>
                    </mxGeometry>
                </mxCell>
                <mxCell id="32" style="edgeStyle=elbowEdgeStyle;rounded=0;elbow=vertical;html=1;exitX=0.288;exitY=0.047;exitDx=0;exitDy=0;fontSize=11;fontColor=#000000;strokeColor=#000000;exitPerimeter=0;" parent="1" source="2" edge="1">
                    <mxGeometry relative="1" as="geometry">
                        <mxPoint x="171" y="100" as="targetPoint"/>
                        <mxPoint x="387.26" y="199.01" as="sourcePoint"/>
                        <Array as="points">
                            <mxPoint x="280" y="170"/>
                        </Array>
                    </mxGeometry>
                </mxCell>
                <mxCell id="38" style="edgeStyle=elbowEdgeStyle;rounded=0;elbow=vertical;html=1;exitX=0.645;exitY=0.024;exitDx=0;exitDy=0;fontSize=11;fontColor=#000000;strokeColor=#000000;exitPerimeter=0;entryX=0;entryY=0.336;entryDx=0;entryDy=0;entryPerimeter=0;" parent="1" edge="1">
                    <mxGeometry relative="1" as="geometry">
                        <mxPoint x="438.65" y="203.07999999999998" as="sourcePoint"/>
                        <mxPoint x="630" y="63.79999999999998" as="targetPoint"/>
                        <Array as="points">
                            <mxPoint x="529" y="64"/>
                        </Array>
                    </mxGeometry>
                </mxCell>
                <mxCell id="42" style="edgeStyle=elbowEdgeStyle;rounded=0;elbow=vertical;html=1;exitX=0.768;exitY=0.076;exitDx=0;exitDy=0;entryX=0;entryY=0.75;entryDx=0;entryDy=0;fontSize=11;fontColor=#000000;strokeColor=#000000;exitPerimeter=0;" parent="1" source="2" edge="1">
                    <mxGeometry relative="1" as="geometry">
                        <mxPoint x="459.55999999999995" y="215.26" as="sourcePoint"/>
                        <mxPoint x="630" y="87.49999999999997" as="targetPoint"/>
                        <Array as="points">
                            <mxPoint x="460" y="88"/>
                            <mxPoint x="536" y="88"/>
                        </Array>
                    </mxGeometry>
                </mxCell>
                <mxCell id="62" style="edgeStyle=elbowEdgeStyle;rounded=0;elbow=vertical;html=1;exitX=0.799;exitY=0.099;exitDx=0;exitDy=0;entryX=0.25;entryY=1;entryDx=0;entryDy=0;fontSize=11;fontColor=#000000;strokeColor=#000000;exitPerimeter=0;" parent="1" source="2" target="4" edge="1">
                    <mxGeometry relative="1" as="geometry">
                        <mxPoint x="464.8299999999999" y="214.83000000000004" as="sourcePoint"/>
                        <mxPoint x="677.5" y="96" as="targetPoint"/>
                        <Array as="points">
                            <mxPoint x="670" y="155"/>
                        </Array>
                    </mxGeometry>
                </mxCell>
                <mxCell id="75" style="edgeStyle=elbowEdgeStyle;rounded=0;html=1;exitX=0.199;exitY=0.899;exitDx=0;exitDy=0;fontSize=11;fontColor=#000000;strokeColor=#000000;exitPerimeter=0;entryX=0.185;entryY=0.002;entryDx=0;entryDy=0;entryPerimeter=0;" parent="1" source="2" target="5" edge="1">
                    <mxGeometry relative="1" as="geometry">
                        <Array as="points">
                            <mxPoint x="105" y="448"/>
                        </Array>
                        <mxPoint x="363.47" y="352.80999999999995" as="sourcePoint"/>
                        <mxPoint x="104.68000000000006" y="611.3499999999999" as="targetPoint"/>
                    </mxGeometry>
                </mxCell>
                <mxCell id="95" style="edgeStyle=elbowEdgeStyle;rounded=0;elbow=vertical;html=1;exitX=0.605;exitY=0.99;exitDx=0;exitDy=0;strokeColor=#000000;exitPerimeter=0;entryX=1;entryY=0.672;entryDx=0;entryDy=0;entryPerimeter=0;" parent="1" target="5" edge="1">
                    <mxGeometry relative="1" as="geometry">
                        <mxPoint x="429.8499999999999" y="368.29999999999995" as="sourcePoint"/>
                        <mxPoint x="258" y="644" as="targetPoint"/>
                        <Array as="points">
                            <mxPoint x="353" y="644"/>
                        </Array>
                    </mxGeometry>
                </mxCell>
                <mxCell id="102" style="edgeStyle=elbowEdgeStyle;rounded=0;elbow=vertical;html=1;fontFamily=Helvetica;fontSize=11;strokeColor=#000000;entryX=0.795;entryY=0;entryDx=0;entryDy=0;entryPerimeter=0;" parent="1" edge="1" target="97" source="2">
                    <mxGeometry relative="1" as="geometry">
                        <Array as="points">
                            <mxPoint x="613" y="343"/>
                        </Array>
                        <mxPoint x="506.47" y="343.02" as="sourcePoint"/>
                        <mxPoint x="781" y="599" as="targetPoint"/>
                    </mxGeometry>
                </mxCell>
                <mxCell id="135" style="edgeStyle=none;rounded=0;html=1;entryX=0.626;entryY=0;entryDx=0;entryDy=0;strokeColor=#000000;entryPerimeter=0;exitX=0.794;exitY=0.905;exitDx=0;exitDy=0;exitPerimeter=0;" edge="1" parent="1" source="2">
                    <mxGeometry relative="1" as="geometry">
                        <mxPoint x="464" y="356" as="sourcePoint"/>
                        <mxPoint x="747.94" y="612" as="targetPoint"/>
                        <Array as="points">
                            <mxPoint x="464" y="465"/>
                            <mxPoint x="748" y="465"/>
                        </Array>
                    </mxGeometry>
                </mxCell>
                <mxCell id="139" style="edgeStyle=none;rounded=0;html=1;exitX=0.454;exitY=0.997;exitDx=0;exitDy=0;entryX=0.882;entryY=-0.003;entryDx=0;entryDy=0;entryPerimeter=0;fontFamily=Times New Roman;fontSize=11;fontColor=#000000;strokeColor=#000000;exitPerimeter=0;" edge="1" parent="1" source="2" target="5">
                    <mxGeometry relative="1" as="geometry">
                        <mxPoint x="406.20000000000005" y="364.3399999999999" as="sourcePoint"/>
                        <mxPoint x="237.91000000000008" y="604" as="targetPoint"/>
                        <Array as="points">
                            <mxPoint x="406" y="484"/>
                            <mxPoint x="319" y="484"/>
                            <mxPoint x="239" y="484"/>
                        </Array>
                    </mxGeometry>
                </mxCell>
                <mxCell id="147" style="edgeStyle=none;rounded=0;html=1;exitX=0.066;exitY=0.747;exitDx=0;exitDy=0;fontFamily=Times New Roman;fontSize=11;fontColor=#000000;strokeColor=#000000;entryX=-0.001;entryY=0.298;entryDx=0;entryDy=0;exitPerimeter=0;entryPerimeter=0;" edge="1" parent="1" source="2">
                    <mxGeometry relative="1" as="geometry">
                        <mxPoint x="69.80999999999995" y="65.89999999999998" as="targetPoint"/>
                        <mxPoint x="337.04999999999995" y="328.01" as="sourcePoint"/>
                        <Array as="points">
                            <mxPoint x="40" y="327"/>
                            <mxPoint x="40" y="66"/>
                        </Array>
                    </mxGeometry>
                </mxCell>
                <mxCell id="2" value="&lt;b&gt;&lt;font style=&quot;font-size: 16px&quot; color=&quot;#000000&quot;&gt;Phoenix Computers&lt;/font&gt;&lt;/b&gt;" style="shape=ellipse;html=1;dashed=0;whitespace=wrap;aspect=fixed;strokeWidth=1;perimeter=ellipsePerimeter;strokeColor=#000000;fillColor=none;" parent="1" vertex="1">
                    <mxGeometry x="329" y="200" width="170" height="170" as="geometry"/>
                </mxCell>
                <mxCell id="19" style="edgeStyle=elbowEdgeStyle;rounded=0;html=1;exitX=1;exitY=0.25;exitDx=0;exitDy=0;entryX=0.536;entryY=0.003;entryDx=0;entryDy=0;entryPerimeter=0;fontSize=11;fontColor=#000000;strokeColor=#000000;" parent="1" target="2" edge="1">
                    <mxGeometry relative="1" as="geometry">
                        <mxPoint x="260" y="54.5" as="sourcePoint"/>
                        <mxPoint x="421.1400000000001" y="191.65999999999997" as="targetPoint"/>
                        <Array as="points">
                            <mxPoint x="420" y="130"/>
                        </Array>
                    </mxGeometry>
                </mxCell>
                <mxCell id="23" style="edgeStyle=elbowEdgeStyle;rounded=0;html=1;exitX=1.002;exitY=0.547;exitDx=0;exitDy=0;entryX=0.435;entryY=0;entryDx=0;entryDy=0;entryPerimeter=0;fontSize=11;fontColor=#000000;strokeColor=#000000;exitPerimeter=0;" parent="1" edge="1">
                    <mxGeometry relative="1" as="geometry">
                        <mxPoint x="259.38000000000005" y="77.35000000000002" as="sourcePoint"/>
                        <mxPoint x="401.95000000000005" y="200" as="targetPoint"/>
                        <Array as="points">
                            <mxPoint x="402" y="140"/>
                        </Array>
                    </mxGeometry>
                </mxCell>
                <mxCell id="31" style="edgeStyle=elbowEdgeStyle;rounded=0;elbow=vertical;html=1;exitX=0.593;exitY=0.998;exitDx=0;exitDy=0;fontSize=11;fontColor=#000000;strokeColor=#000000;exitPerimeter=0;entryX=0.335;entryY=0.027;entryDx=0;entryDy=0;entryPerimeter=0;" parent="1" source="3" target="2" edge="1">
                    <mxGeometry relative="1" as="geometry">
                        <mxPoint x="182.66999999999996" y="107.04999999999995" as="sourcePoint"/>
                        <mxPoint x="386" y="200" as="targetPoint"/>
                        <Array as="points">
                            <mxPoint x="290" y="157"/>
                        </Array>
                    </mxGeometry>
                </mxCell>
                <mxCell id="146" style="edgeStyle=none;rounded=0;html=1;exitX=0.001;exitY=0.559;exitDx=0;exitDy=0;entryX=0.025;entryY=0.665;entryDx=0;entryDy=0;entryPerimeter=0;fontFamily=Times New Roman;fontSize=11;fontColor=#000000;strokeColor=#000000;exitPerimeter=0;" edge="1" parent="1" source="3">
                    <mxGeometry relative="1" as="geometry">
                        <mxPoint x="68" y="78.10000000000002" as="sourcePoint"/>
                        <mxPoint x="335.25" y="316.04999999999995" as="targetPoint"/>
                        <Array as="points">
                            <mxPoint x="52" y="78"/>
                            <mxPoint x="52" y="316"/>
                        </Array>
                    </mxGeometry>
                </mxCell>
                <mxCell id="3" value="&lt;b&gt;&lt;font style=&quot;font-size: 15px&quot;&gt;ADMIN&lt;/font&gt;&lt;/b&gt;" style="html=1;dashed=0;whitespace=wrap;labelBackgroundColor=none;fontSize=16;fontColor=#000000;strokeColor=#000000;strokeWidth=1;fillColor=none;" parent="1" vertex="1">
                    <mxGeometry x="70" y="50" width="190" height="50" as="geometry"/>
                </mxCell>
                <mxCell id="37" style="edgeStyle=elbowEdgeStyle;rounded=0;elbow=vertical;html=1;exitX=0;exitY=0.14;exitDx=0;exitDy=0;fontSize=11;fontColor=#000000;strokeColor=#000000;entryX=0.593;entryY=0.008;entryDx=0;entryDy=0;entryPerimeter=0;exitPerimeter=0;" parent="1" target="2" edge="1">
                    <mxGeometry relative="1" as="geometry">
                        <mxPoint x="630" y="53" as="sourcePoint"/>
                        <mxPoint x="429.80999999999995" y="199.36" as="targetPoint"/>
                        <Array as="points">
                            <mxPoint x="402" y="53"/>
                        </Array>
                    </mxGeometry>
                </mxCell>
                <mxCell id="41" style="edgeStyle=elbowEdgeStyle;rounded=0;elbow=vertical;html=1;exitX=0;exitY=0.52;exitDx=0;exitDy=0;fontSize=11;fontColor=#000000;strokeColor=#000000;entryX=0.702;entryY=0.043;entryDx=0;entryDy=0;entryPerimeter=0;exitPerimeter=0;" parent="1" target="2" edge="1">
                    <mxGeometry relative="1" as="geometry">
                        <mxPoint x="630" y="75" as="sourcePoint"/>
                        <mxPoint x="448.51" y="208.14" as="targetPoint"/>
                        <Array as="points">
                            <mxPoint x="539" y="75"/>
                        </Array>
                    </mxGeometry>
                </mxCell>
                <mxCell id="64" style="edgeStyle=elbowEdgeStyle;rounded=0;elbow=vertical;html=1;exitX=0.297;exitY=0.995;exitDx=0;exitDy=0;fontSize=11;fontColor=#000000;strokeColor=#000000;entryX=0.836;entryY=0.127;entryDx=0;entryDy=0;entryPerimeter=0;exitPerimeter=0;" parent="1" source="4" target="2" edge="1">
                    <mxGeometry relative="1" as="geometry">
                        <mxPoint x="471.0999999999999" y="218.90999999999997" as="targetPoint"/>
                        <mxPoint x="686.5" y="95" as="sourcePoint"/>
                        <Array as="points">
                            <mxPoint x="589" y="167"/>
                        </Array>
                    </mxGeometry>
                </mxCell>
                <mxCell id="4" value="&lt;b&gt;&lt;font style=&quot;font-size: 15px&quot;&gt;CUSTOMER&lt;/font&gt;&lt;/b&gt;" style="html=1;dashed=0;whitespace=wrap;labelBackgroundColor=none;fontSize=16;fontColor=#000000;strokeColor=#000000;strokeWidth=1;fillColor=none;" parent="1" vertex="1">
                    <mxGeometry x="630" y="48" width="190" height="50" as="geometry"/>
                </mxCell>
                <mxCell id="74" style="edgeStyle=elbowEdgeStyle;rounded=0;html=1;exitX=0.094;exitY=0.003;exitDx=0;exitDy=0;fontSize=11;fontColor=#000000;strokeColor=#000000;exitPerimeter=0;entryX=0.1;entryY=0.805;entryDx=0;entryDy=0;entryPerimeter=0;" parent="1" edge="1">
                    <mxGeometry relative="1" as="geometry">
                        <mxPoint x="87.86000000000001" y="611.1500000000001" as="sourcePoint"/>
                        <mxPoint x="348" y="340.85" as="targetPoint"/>
                        <Array as="points">
                            <mxPoint x="88" y="466"/>
                        </Array>
                    </mxGeometry>
                </mxCell>
                <mxCell id="96" style="edgeStyle=elbowEdgeStyle;rounded=0;elbow=vertical;html=1;exitX=1.001;exitY=0.401;exitDx=0;exitDy=0;entryX=0.512;entryY=1.003;entryDx=0;entryDy=0;strokeColor=#000000;exitPerimeter=0;entryPerimeter=0;" parent="1" source="5" target="2" edge="1">
                    <mxGeometry relative="1" as="geometry">
                        <mxPoint x="256" y="630" as="sourcePoint"/>
                        <mxPoint x="416.1199999999999" y="374.16999999999996" as="targetPoint"/>
                        <Array as="points">
                            <mxPoint x="416" y="630"/>
                            <mxPoint x="302" y="630"/>
                        </Array>
                    </mxGeometry>
                </mxCell>
                <mxCell id="138" style="edgeStyle=none;rounded=0;html=1;exitX=0.787;exitY=0.009;exitDx=0;exitDy=0;entryX=0.328;entryY=0.99;entryDx=0;entryDy=0;entryPerimeter=0;fontFamily=Times New Roman;fontSize=11;fontColor=#000000;strokeColor=#000000;exitPerimeter=0;" edge="1" parent="1" source="5">
                    <mxGeometry relative="1" as="geometry">
                        <mxPoint x="219.5" y="608" as="sourcePoint"/>
                        <mxPoint x="391.76" y="366.29999999999995" as="targetPoint"/>
                        <Array as="points">
                            <mxPoint x="220" y="470"/>
                            <mxPoint x="310" y="470"/>
                            <mxPoint x="392" y="470"/>
                        </Array>
                    </mxGeometry>
                </mxCell>
                <mxCell id="5" value="&lt;b&gt;&lt;font style=&quot;font-size: 15px&quot;&gt;Supplier&lt;/font&gt;&lt;/b&gt;" style="html=1;dashed=0;whitespace=wrap;labelBackgroundColor=none;fontSize=16;fontColor=#000000;strokeColor=#000000;strokeWidth=1;fillColor=none;" parent="1" vertex="1">
                    <mxGeometry x="70" y="610" width="190" height="50" as="geometry"/>
                </mxCell>
                <mxCell id="9" value="&lt;font style=&quot;font-size: 11px&quot;&gt;Request for Login&lt;/font&gt;" style="text;html=1;align=center;verticalAlign=middle;resizable=0;points=[];autosize=1;strokeColor=none;fillColor=none;fontSize=15;fontColor=#000000;fontStyle=1" parent="1" vertex="1">
                    <mxGeometry x="176" y="272" width="110" height="20" as="geometry"/>
                </mxCell>
                <mxCell id="10" value="Acknowledgement" style="text;html=1;align=center;verticalAlign=middle;resizable=0;points=[];autosize=1;strokeColor=none;fillColor=none;fontSize=11;fontColor=#000000;fontStyle=1" parent="1" vertex="1">
                    <mxGeometry x="175" y="287" width="110" height="20" as="geometry"/>
                </mxCell>
                <mxCell id="13" value="Manage Category" style="text;html=1;align=center;verticalAlign=middle;resizable=0;points=[];autosize=1;strokeColor=none;fillColor=none;fontSize=11;fontColor=#000000;fontStyle=1" parent="1" vertex="1">
                    <mxGeometry x="182" y="247" width="110" height="20" as="geometry"/>
                </mxCell>
                <mxCell id="14" value="Acknowledgement" style="text;html=1;align=center;verticalAlign=middle;resizable=0;points=[];autosize=1;strokeColor=none;fillColor=none;fontSize=11;fontColor=#000000;fontStyle=1" parent="1" vertex="1">
                    <mxGeometry x="183" y="261" width="110" height="20" as="geometry"/>
                </mxCell>
                <mxCell id="16" value="&lt;span&gt;Manage Product&lt;/span&gt;" style="text;html=1;align=center;verticalAlign=middle;resizable=0;points=[];autosize=1;strokeColor=none;fillColor=none;fontSize=11;fontColor=#000000;fontStyle=1" parent="1" vertex="1">
                    <mxGeometry x="187" y="220" width="100" height="20" as="geometry"/>
                </mxCell>
                <mxCell id="18" value="Acknowledgement" style="text;html=1;align=center;verticalAlign=middle;resizable=0;points=[];autosize=1;strokeColor=none;fillColor=none;fontSize=11;fontColor=#000000;fontStyle=1" parent="1" vertex="1">
                    <mxGeometry x="183" y="234" width="110" height="20" as="geometry"/>
                </mxCell>
                <mxCell id="21" value="Manage Order" style="text;html=1;align=center;verticalAlign=middle;resizable=0;points=[];autosize=1;strokeColor=none;fillColor=none;fontSize=11;fontColor=#000000;fontStyle=1" parent="1" vertex="1">
                    <mxGeometry x="279" y="38" width="90" height="20" as="geometry"/>
                </mxCell>
                <mxCell id="22" value="Acknowledgement" style="text;html=1;align=center;verticalAlign=middle;resizable=0;points=[];autosize=1;strokeColor=none;fillColor=none;fontSize=11;fontColor=#000000;fontStyle=1" parent="1" vertex="1">
                    <mxGeometry x="269" y="51" width="110" height="20" as="geometry"/>
                </mxCell>
                <mxCell id="25" value="&lt;b&gt;Manage Payment&lt;/b&gt;" style="text;html=1;align=center;verticalAlign=middle;resizable=0;points=[];autosize=1;strokeColor=none;fillColor=none;fontSize=11;fontColor=#000000;" parent="1" vertex="1">
                    <mxGeometry x="268" y="62" width="110" height="20" as="geometry"/>
                </mxCell>
                <mxCell id="26" value="Acknowledgement" style="text;html=1;align=center;verticalAlign=middle;resizable=0;points=[];autosize=1;strokeColor=none;fillColor=none;fontSize=11;fontColor=#000000;fontStyle=1" parent="1" vertex="1">
                    <mxGeometry x="269" y="73" width="110" height="20" as="geometry"/>
                </mxCell>
                <mxCell id="29" value="&lt;span&gt;Manage Shipping&lt;/span&gt;" style="text;html=1;align=center;verticalAlign=middle;resizable=0;points=[];autosize=1;strokeColor=none;fillColor=none;fontSize=11;fontColor=#000000;fontStyle=1" parent="1" vertex="1">
                    <mxGeometry x="182" y="192" width="110" height="20" as="geometry"/>
                </mxCell>
                <mxCell id="30" value="&lt;span&gt;Acknowledgement&lt;/span&gt;" style="text;html=1;align=center;verticalAlign=middle;resizable=0;points=[];autosize=1;strokeColor=none;fillColor=none;fontSize=11;fontColor=#000000;fontStyle=1" parent="1" vertex="1">
                    <mxGeometry x="183" y="206" width="110" height="20" as="geometry"/>
                </mxCell>
                <mxCell id="33" value="&lt;b&gt;Manage Supplies&lt;/b&gt;" style="text;html=1;align=center;verticalAlign=middle;resizable=0;points=[];autosize=1;strokeColor=none;fillColor=none;fontSize=11;fontColor=#000000;" parent="1" vertex="1">
                    <mxGeometry x="208" y="140" width="110" height="20" as="geometry"/>
                </mxCell>
                <mxCell id="35" value="&lt;b&gt;Acknowledgement&lt;/b&gt;" style="text;html=1;align=center;verticalAlign=middle;resizable=0;points=[];autosize=1;strokeColor=none;fillColor=none;fontSize=11;fontColor=#000000;" parent="1" vertex="1">
                    <mxGeometry x="208" y="153" width="110" height="20" as="geometry"/>
                </mxCell>
                <mxCell id="39" value="Request for Registration" style="text;html=1;align=center;verticalAlign=middle;resizable=0;points=[];autosize=1;strokeColor=none;fillColor=none;fontSize=11;fontColor=#000000;fontStyle=1" parent="1" vertex="1">
                    <mxGeometry x="465" y="36" width="140" height="20" as="geometry"/>
                </mxCell>
                <mxCell id="40" value="Acknowledgement" style="text;html=1;align=center;verticalAlign=middle;resizable=0;points=[];autosize=1;strokeColor=none;fillColor=none;fontSize=11;fontColor=#000000;fontStyle=1" parent="1" vertex="1">
                    <mxGeometry x="476" y="48" width="110" height="20" as="geometry"/>
                </mxCell>
                <mxCell id="43" value="&lt;b&gt;Request for Login&lt;/b&gt;" style="text;html=1;align=center;verticalAlign=middle;resizable=0;points=[];autosize=1;strokeColor=none;fillColor=none;fontSize=11;fontColor=#000000;" parent="1" vertex="1">
                    <mxGeometry x="476" y="59" width="110" height="20" as="geometry"/>
                </mxCell>
                <mxCell id="44" value="&lt;b&gt;Acknowledgement&lt;/b&gt;" style="text;html=1;align=center;verticalAlign=middle;resizable=0;points=[];autosize=1;strokeColor=none;fillColor=none;fontSize=11;fontColor=#000000;" parent="1" vertex="1">
                    <mxGeometry x="477" y="72" width="110" height="20" as="geometry"/>
                </mxCell>
                <mxCell id="47" value="&lt;b&gt;Search Product&lt;/b&gt;" style="text;html=1;align=center;verticalAlign=middle;resizable=0;points=[];autosize=1;strokeColor=none;fillColor=none;fontSize=11;fontColor=#000000;" parent="1" vertex="1">
                    <mxGeometry x="535" y="283" width="100" height="20" as="geometry"/>
                </mxCell>
                <mxCell id="48" value="&lt;b&gt;Acknowledgement&lt;/b&gt;" style="text;html=1;align=center;verticalAlign=middle;resizable=0;points=[];autosize=1;strokeColor=none;fillColor=none;fontSize=11;fontColor=#000000;" parent="1" vertex="1">
                    <mxGeometry x="530" y="295" width="110" height="20" as="geometry"/>
                </mxCell>
                <mxCell id="51" value="&lt;b&gt;Acknowledgement&lt;/b&gt;" style="text;html=1;align=center;verticalAlign=middle;resizable=0;points=[];autosize=1;strokeColor=none;fillColor=none;fontSize=11;fontColor=#000000;" parent="1" vertex="1">
                    <mxGeometry x="532" y="270" width="110" height="20" as="geometry"/>
                </mxCell>
                <mxCell id="52" value="&lt;b&gt;Manage Profile&lt;/b&gt;" style="text;html=1;align=center;verticalAlign=middle;resizable=0;points=[];autosize=1;strokeColor=none;fillColor=none;fontSize=11;fontColor=#000000;" parent="1" vertex="1">
                    <mxGeometry x="544" y="257" width="90" height="20" as="geometry"/>
                </mxCell>
                <mxCell id="55" value="&lt;b&gt;Make Order&lt;/b&gt;" style="text;html=1;align=center;verticalAlign=middle;resizable=0;points=[];autosize=1;strokeColor=none;fillColor=none;fontSize=11;fontColor=#000000;" parent="1" vertex="1">
                    <mxGeometry x="545" y="232" width="80" height="20" as="geometry"/>
                </mxCell>
                <mxCell id="56" value="&lt;b&gt;Acknowledgement&lt;/b&gt;" style="text;html=1;align=center;verticalAlign=middle;resizable=0;points=[];autosize=1;strokeColor=none;fillColor=none;fontSize=11;fontColor=#000000;" parent="1" vertex="1">
                    <mxGeometry x="533" y="244" width="110" height="20" as="geometry"/>
                </mxCell>
                <mxCell id="60" value="&lt;b&gt;Make Payment&lt;/b&gt;" style="text;html=1;align=center;verticalAlign=middle;resizable=0;points=[];autosize=1;strokeColor=none;fillColor=none;fontSize=11;fontColor=#000000;" parent="1" vertex="1">
                    <mxGeometry x="545" y="206" width="90" height="20" as="geometry"/>
                </mxCell>
                <mxCell id="61" value="&lt;b&gt;Acknowledgement&lt;/b&gt;" style="text;html=1;align=center;verticalAlign=middle;resizable=0;points=[];autosize=1;strokeColor=none;fillColor=none;fontSize=11;fontColor=#000000;" parent="1" vertex="1">
                    <mxGeometry x="533" y="218" width="110" height="20" as="geometry"/>
                </mxCell>
                <mxCell id="65" value="&lt;b&gt;Sales Return&lt;/b&gt;" style="text;html=1;align=center;verticalAlign=middle;resizable=0;points=[];autosize=1;strokeColor=none;fillColor=none;fontSize=11;fontColor=#000000;" parent="1" vertex="1">
                    <mxGeometry x="530" y="138" width="80" height="20" as="geometry"/>
                </mxCell>
                <mxCell id="66" value="&lt;b&gt;Acknowledgement&lt;/b&gt;" style="text;html=1;align=center;verticalAlign=middle;resizable=0;points=[];autosize=1;strokeColor=none;fillColor=none;fontSize=11;fontColor=#000000;" parent="1" vertex="1">
                    <mxGeometry x="515" y="151" width="110" height="20" as="geometry"/>
                </mxCell>
                <mxCell id="69" value="&lt;span style=&quot;font-size: 11px&quot;&gt;&lt;font style=&quot;font-size: 11px&quot;&gt;Manage Payment&lt;/font&gt;&lt;/span&gt;" style="text;html=1;align=center;verticalAlign=middle;resizable=0;points=[];autosize=1;strokeColor=none;fillColor=none;fontSize=11;fontColor=#000000;rotation=0;fontStyle=1;fontFamily=Helvetica;" parent="1" vertex="1">
                    <mxGeometry x="210" y="390" width="110" height="20" as="geometry"/>
                </mxCell>
                <mxCell id="76" value="&lt;b&gt;Manage Supplies&lt;/b&gt;" style="text;html=1;align=center;verticalAlign=middle;resizable=0;points=[];autosize=1;strokeColor=none;fillColor=none;fontSize=11;fontColor=#000000;" parent="1" vertex="1">
                    <mxGeometry x="176" y="324" width="110" height="20" as="geometry"/>
                </mxCell>
                <mxCell id="77" value="&lt;b&gt;Acknowledgement&lt;/b&gt;" style="text;html=1;align=center;verticalAlign=middle;resizable=0;points=[];autosize=1;strokeColor=none;fillColor=none;fontSize=11;fontColor=#000000;" parent="1" vertex="1">
                    <mxGeometry x="182" y="336" width="110" height="20" as="geometry"/>
                </mxCell>
                <mxCell id="82" value="&lt;b&gt;&lt;font color=&quot;#000000&quot; style=&quot;font-size: 11px&quot;&gt;Manage Profile&lt;/font&gt;&lt;/b&gt;" style="text;html=1;align=center;verticalAlign=middle;resizable=0;points=[];autosize=1;strokeColor=none;fillColor=none;" parent="1" vertex="1">
                    <mxGeometry x="290" y="611" width="90" height="20" as="geometry"/>
                </mxCell>
                <mxCell id="83" value="&lt;b&gt;Acknowledgement&lt;/b&gt;" style="text;html=1;align=center;verticalAlign=middle;resizable=0;points=[];autosize=1;strokeColor=none;fillColor=none;fontSize=11;fontColor=#000000;" parent="1" vertex="1">
                    <mxGeometry x="278" y="627" width="110" height="20" as="geometry"/>
                </mxCell>
                <mxCell id="86" value="&lt;b&gt;Acknowledgement&lt;/b&gt;" style="text;html=1;align=center;verticalAlign=middle;resizable=0;points=[];autosize=1;strokeColor=none;fillColor=none;fontSize=11;fontColor=#000000;" parent="1" vertex="1">
                    <mxGeometry x="210" y="413" width="110" height="20" as="geometry"/>
                </mxCell>
                <mxCell id="103" style="edgeStyle=elbowEdgeStyle;rounded=0;elbow=vertical;html=1;fontFamily=Helvetica;fontSize=11;strokeColor=#000000;entryX=0.937;entryY=0.751;entryDx=0;entryDy=0;entryPerimeter=0;exitX=0.9;exitY=0;exitDx=0;exitDy=0;exitPerimeter=0;" parent="1" source="97" edge="1" target="2">
                    <mxGeometry relative="1" as="geometry">
                        <mxPoint x="801" y="599" as="sourcePoint"/>
                        <mxPoint x="514.9299999999998" y="328.03" as="targetPoint"/>
                        <Array as="points">
                            <mxPoint x="608" y="328"/>
                        </Array>
                    </mxGeometry>
                </mxCell>
                <mxCell id="134" style="edgeStyle=none;html=1;strokeColor=#000000;rounded=0;exitX=0.684;exitY=0;exitDx=0;exitDy=0;exitPerimeter=0;entryX=0.859;entryY=0.852;entryDx=0;entryDy=0;entryPerimeter=0;" edge="1" parent="1" target="2">
                    <mxGeometry relative="1" as="geometry">
                        <mxPoint x="760.96" y="611" as="sourcePoint"/>
                        <mxPoint x="475.104076400856" y="346.10407640085606" as="targetPoint"/>
                        <Array as="points">
                            <mxPoint x="761" y="451"/>
                            <mxPoint x="475" y="451"/>
                        </Array>
                    </mxGeometry>
                </mxCell>
                <mxCell id="97" value="&lt;b&gt;&lt;font style=&quot;font-size: 15px&quot;&gt;Delivery Boy&lt;/font&gt;&lt;/b&gt;" style="html=1;dashed=0;whitespace=wrap;labelBackgroundColor=none;fontSize=16;fontColor=#000000;strokeColor=#000000;strokeWidth=1;fillColor=none;" parent="1" vertex="1">
                    <mxGeometry x="630" y="610" width="190" height="50" as="geometry"/>
                </mxCell>
                <mxCell id="100" value="&lt;b&gt;Manage Profile&lt;/b&gt;" style="text;html=1;align=center;verticalAlign=middle;resizable=0;points=[];autosize=1;strokeColor=none;fillColor=none;fontSize=11;fontColor=#000000;" parent="1" vertex="1">
                    <mxGeometry x="498" y="611" width="90" height="20" as="geometry"/>
                </mxCell>
                <mxCell id="101" value="&lt;b&gt;Acknowledgement&lt;/b&gt;" style="text;html=1;align=center;verticalAlign=middle;resizable=0;points=[];autosize=1;strokeColor=none;fillColor=none;fontSize=11;fontColor=#000000;" parent="1" vertex="1">
                    <mxGeometry x="488" y="626" width="110" height="20" as="geometry"/>
                </mxCell>
                <mxCell id="105" value="&lt;b&gt;Manage Delivery&lt;/b&gt;" style="text;html=1;align=center;verticalAlign=middle;resizable=0;points=[];autosize=1;strokeColor=none;fillColor=none;fontSize=11;fontColor=#000000;" parent="1" vertex="1">
                    <mxGeometry x="536" y="312" width="100" height="20" as="geometry"/>
                </mxCell>
                <mxCell id="112" value="" style="endArrow=classic;html=1;strokeColor=#000000;entryX=1;entryY=0;entryDx=0;entryDy=0;exitX=0.441;exitY=1.04;exitDx=0;exitDy=0;exitPerimeter=0;rounded=0;" parent="1" edge="1">
                    <mxGeometry width="50" height="50" relative="1" as="geometry">
                        <mxPoint x="710.79" y="98" as="sourcePoint"/>
                        <mxPoint x="471.10407640085646" y="222.89592359914366" as="targetPoint"/>
                        <Array as="points">
                            <mxPoint x="711" y="223"/>
                        </Array>
                    </mxGeometry>
                </mxCell>
                <mxCell id="114" value="" style="endArrow=classic;html=1;strokeColor=#000000;exitX=0.922;exitY=0.218;exitDx=0;exitDy=0;exitPerimeter=0;entryX=0.484;entryY=1.006;entryDx=0;entryDy=0;entryPerimeter=0;rounded=0;" parent="1" target="4" edge="1">
                    <mxGeometry width="50" height="50" relative="1" as="geometry">
                        <mxPoint x="482.74" y="236.05999999999995" as="sourcePoint"/>
                        <mxPoint x="722" y="100" as="targetPoint"/>
                        <Array as="points">
                            <mxPoint x="722" y="236"/>
                        </Array>
                    </mxGeometry>
                </mxCell>
                <mxCell id="115" value="" style="endArrow=classic;html=1;strokeColor=#000000;entryX=0.949;entryY=0.289;entryDx=0;entryDy=0;entryPerimeter=0;exitX=0.549;exitY=1.004;exitDx=0;exitDy=0;exitPerimeter=0;rounded=0;" parent="1" source="4" edge="1">
                    <mxGeometry width="50" height="50" relative="1" as="geometry">
                        <mxPoint x="734.26" y="99.35000000000002" as="sourcePoint"/>
                        <mxPoint x="489.3299999999999" y="248.13" as="targetPoint"/>
                        <Array as="points">
                            <mxPoint x="734" y="248"/>
                        </Array>
                    </mxGeometry>
                </mxCell>
                <mxCell id="116" value="" style="endArrow=classic;html=1;strokeColor=#000000;entryX=0.594;entryY=1.01;entryDx=0;entryDy=0;entryPerimeter=0;exitX=0.983;exitY=0.357;exitDx=0;exitDy=0;exitPerimeter=0;rounded=0;" parent="1" target="4" edge="1">
                    <mxGeometry width="50" height="50" relative="1" as="geometry">
                        <mxPoint x="496.11" y="261.69" as="sourcePoint"/>
                        <mxPoint x="742.8599999999999" y="100.49999999999994" as="targetPoint"/>
                        <Array as="points">
                            <mxPoint x="743" y="261"/>
                        </Array>
                    </mxGeometry>
                </mxCell>
                <mxCell id="117" value="" style="endArrow=classic;html=1;strokeColor=#000000;exitX=0.652;exitY=0.994;exitDx=0;exitDy=0;exitPerimeter=0;rounded=0;" parent="1" source="4" edge="1">
                    <mxGeometry width="50" height="50" relative="1" as="geometry">
                        <mxPoint x="745.6799999999998" y="104.59999999999997" as="sourcePoint"/>
                        <mxPoint x="498" y="274" as="targetPoint"/>
                        <Array as="points">
                            <mxPoint x="754" y="274"/>
                        </Array>
                    </mxGeometry>
                </mxCell>
                <mxCell id="118" value="" style="endArrow=classic;html=1;strokeColor=#000000;entryX=0.731;entryY=1.006;entryDx=0;entryDy=0;entryPerimeter=0;exitX=1;exitY=0.5;exitDx=0;exitDy=0;rounded=0;" parent="1" target="4" edge="1">
                    <mxGeometry width="50" height="50" relative="1" as="geometry">
                        <mxPoint x="499.0000000000002" y="287" as="sourcePoint"/>
                        <mxPoint x="768.8899999999999" y="101.44999999999993" as="targetPoint"/>
                        <Array as="points">
                            <mxPoint x="769" y="287"/>
                        </Array>
                    </mxGeometry>
                </mxCell>
                <mxCell id="119" value="" style="endArrow=classic;html=1;strokeColor=#000000;entryX=1.006;entryY=0.588;entryDx=0;entryDy=0;entryPerimeter=0;exitX=0.793;exitY=0.992;exitDx=0;exitDy=0;exitPerimeter=0;rounded=0;" parent="1" source="4" edge="1">
                    <mxGeometry width="50" height="50" relative="1" as="geometry">
                        <mxPoint x="780.76" y="100.19999999999999" as="sourcePoint"/>
                        <mxPoint x="498.0200000000001" y="298.96000000000004" as="targetPoint"/>
                        <Array as="points">
                            <mxPoint x="781" y="299"/>
                        </Array>
                    </mxGeometry>
                </mxCell>
                <mxCell id="120" value="" style="endArrow=classic;html=1;strokeColor=#000000;exitX=0.975;exitY=0.686;exitDx=0;exitDy=0;exitPerimeter=0;entryX=0.894;entryY=1.003;entryDx=0;entryDy=0;entryPerimeter=0;rounded=0;" parent="1" target="4" edge="1">
                    <mxGeometry width="50" height="50" relative="1" as="geometry">
                        <mxPoint x="494.7499999999999" y="311.62" as="sourcePoint"/>
                        <mxPoint x="800" y="100" as="targetPoint"/>
                        <Array as="points">
                            <mxPoint x="800" y="312"/>
                        </Array>
                    </mxGeometry>
                </mxCell>
                <mxCell id="121" value="" style="endArrow=classic;html=1;strokeColor=#000000;entryX=0.725;entryY=0.95;entryDx=0;entryDy=0;entryPerimeter=0;rounded=0;" parent="1" target="2" edge="1">
                    <mxGeometry width="50" height="50" relative="1" as="geometry">
                        <mxPoint x="630" y="629" as="sourcePoint"/>
                        <mxPoint x="452.5899999999999" y="364.99" as="targetPoint"/>
                        <Array as="points">
                            <mxPoint x="453" y="629"/>
                        </Array>
                    </mxGeometry>
                </mxCell>
                <mxCell id="122" value="" style="endArrow=classic;html=1;strokeColor=#000000;entryX=0;entryY=0.6;entryDx=0;entryDy=0;entryPerimeter=0;exitX=0.65;exitY=0.978;exitDx=0;exitDy=0;exitPerimeter=0;rounded=0;" parent="1" source="2" edge="1">
                    <mxGeometry width="50" height="50" relative="1" as="geometry">
                        <mxPoint x="439.5" y="370.43" as="sourcePoint"/>
                        <mxPoint x="630.0000000000001" y="644" as="targetPoint"/>
                        <Array as="points">
                            <mxPoint x="440" y="644"/>
                        </Array>
                    </mxGeometry>
                </mxCell>
                <mxCell id="124" value="" style="endArrow=classic;html=1;rounded=0;strokeColor=#000000;elbow=vertical;entryX=0.207;entryY=0.908;entryDx=0;entryDy=0;entryPerimeter=0;" parent="1" target="2" edge="1">
                    <mxGeometry width="50" height="50" relative="1" as="geometry">
                        <mxPoint x="144" y="610" as="sourcePoint"/>
                        <mxPoint x="363.97" y="363.97" as="targetPoint"/>
                        <Array as="points">
                            <mxPoint x="144" y="414"/>
                            <mxPoint x="254" y="414"/>
                            <mxPoint x="364" y="414"/>
                        </Array>
                    </mxGeometry>
                </mxCell>
                <mxCell id="125" value="" style="endArrow=classic;html=1;strokeColor=#000000;rounded=0;exitX=0.288;exitY=0.952;exitDx=0;exitDy=0;exitPerimeter=0;" parent="1" source="2" edge="1">
                    <mxGeometry width="50" height="50" relative="1" as="geometry">
                        <mxPoint x="376.5" y="370.80999999999995" as="sourcePoint"/>
                        <mxPoint x="160" y="610" as="targetPoint"/>
                        <Array as="points">
                            <mxPoint x="378" y="431"/>
                            <mxPoint x="261" y="431"/>
                            <mxPoint x="160" y="431"/>
                        </Array>
                    </mxGeometry>
                </mxCell>
                <mxCell id="126" value="" style="endArrow=classic;html=1;strokeColor=#000000;entryX=0.241;entryY=0.059;entryDx=0;entryDy=0;entryPerimeter=0;rounded=0;exitX=0.433;exitY=1.005;exitDx=0;exitDy=0;exitPerimeter=0;" parent="1" source="3" edge="1">
                    <mxGeometry width="50" height="50" relative="1" as="geometry">
                        <mxPoint x="153" y="110" as="sourcePoint"/>
                        <mxPoint x="372.9699999999999" y="210.03000000000003" as="targetPoint"/>
                        <Array as="points">
                            <mxPoint x="153" y="210"/>
                        </Array>
                    </mxGeometry>
                </mxCell>
                <mxCell id="127" value="" style="endArrow=classic;html=1;strokeColor=#000000;entryX=0.368;entryY=1;entryDx=0;entryDy=0;entryPerimeter=0;exitX=0.154;exitY=0.134;exitDx=0;exitDy=0;exitPerimeter=0;rounded=0;" parent="1" edge="1">
                    <mxGeometry width="50" height="50" relative="1" as="geometry">
                        <mxPoint x="356.17999999999995" y="222.77999999999997" as="sourcePoint"/>
                        <mxPoint x="140.91999999999996" y="100" as="targetPoint"/>
                        <Array as="points">
                            <mxPoint x="141" y="223"/>
                        </Array>
                    </mxGeometry>
                </mxCell>
                <mxCell id="128" value="" style="endArrow=classic;html=1;strokeColor=#000000;entryX=0.083;entryY=0.221;entryDx=0;entryDy=0;entryPerimeter=0;rounded=0;" parent="1" target="2" edge="1">
                    <mxGeometry width="50" height="50" relative="1" as="geometry">
                        <mxPoint x="132" y="100" as="sourcePoint"/>
                        <mxPoint x="342" y="237" as="targetPoint"/>
                        <Array as="points">
                            <mxPoint x="132" y="237"/>
                        </Array>
                    </mxGeometry>
                </mxCell>
                <mxCell id="129" value="" style="endArrow=classic;html=1;strokeColor=#000000;exitX=0.047;exitY=0.294;exitDx=0;exitDy=0;exitPerimeter=0;rounded=0;entryX=0.273;entryY=1.005;entryDx=0;entryDy=0;entryPerimeter=0;" parent="1" source="2" target="3" edge="1">
                    <mxGeometry width="50" height="50" relative="1" as="geometry">
                        <mxPoint x="230" y="270" as="sourcePoint"/>
                        <mxPoint x="123" y="100" as="targetPoint"/>
                        <Array as="points">
                            <mxPoint x="123" y="250"/>
                        </Array>
                    </mxGeometry>
                </mxCell>
                <mxCell id="130" value="" style="endArrow=classic;html=1;strokeColor=#000000;entryX=0.016;entryY=0.377;entryDx=0;entryDy=0;entryPerimeter=0;exitX=0.21;exitY=1.011;exitDx=0;exitDy=0;exitPerimeter=0;rounded=0;" parent="1" source="3" target="2" edge="1">
                    <mxGeometry width="50" height="50" relative="1" as="geometry">
                        <mxPoint x="10" y="292" as="sourcePoint"/>
                        <mxPoint x="60" y="242" as="targetPoint"/>
                        <Array as="points">
                            <mxPoint x="110" y="264"/>
                        </Array>
                    </mxGeometry>
                </mxCell>
                <mxCell id="131" value="" style="endArrow=classic;html=1;strokeColor=#000000;exitX=0.002;exitY=0.453;exitDx=0;exitDy=0;exitPerimeter=0;entryX=0.155;entryY=1.008;entryDx=0;entryDy=0;entryPerimeter=0;rounded=0;" parent="1" source="2" target="3" edge="1">
                    <mxGeometry width="50" height="50" relative="1" as="geometry">
                        <mxPoint x="120" y="280" as="sourcePoint"/>
                        <mxPoint x="170" y="230" as="targetPoint"/>
                        <Array as="points">
                            <mxPoint x="100" y="277"/>
                        </Array>
                    </mxGeometry>
                </mxCell>
                <mxCell id="132" value="" style="endArrow=classic;html=1;strokeColor=#000000;exitX=0.106;exitY=1.003;exitDx=0;exitDy=0;exitPerimeter=0;rounded=0;entryX=0.006;entryY=0.529;entryDx=0;entryDy=0;entryPerimeter=0;" parent="1" source="3" target="2" edge="1">
                    <mxGeometry width="50" height="50" relative="1" as="geometry">
                        <mxPoint x="90" y="270" as="sourcePoint"/>
                        <mxPoint x="320" y="290" as="targetPoint"/>
                        <Array as="points">
                            <mxPoint x="90" y="290"/>
                        </Array>
                    </mxGeometry>
                </mxCell>
                <mxCell id="133" value="" style="endArrow=classic;html=1;strokeColor=#000000;entryX=0.052;entryY=1.003;entryDx=0;entryDy=0;entryPerimeter=0;exitX=0.007;exitY=0.605;exitDx=0;exitDy=0;exitPerimeter=0;rounded=0;" parent="1" source="2" target="3" edge="1">
                    <mxGeometry width="50" height="50" relative="1" as="geometry">
                        <mxPoint x="80" y="300" as="sourcePoint"/>
                        <mxPoint x="130" y="250" as="targetPoint"/>
                        <Array as="points">
                            <mxPoint x="80" y="303"/>
                        </Array>
                    </mxGeometry>
                </mxCell>
                <mxCell id="136" value="&lt;b&gt;&lt;font color=&quot;#000000&quot; style=&quot;font-size: 11px&quot;&gt;Request for Login&lt;/font&gt;&lt;/b&gt;" style="text;html=1;align=center;verticalAlign=middle;resizable=0;points=[];autosize=1;strokeColor=none;fillColor=none;" vertex="1" parent="1">
                    <mxGeometry x="550" y="432" width="110" height="20" as="geometry"/>
                </mxCell>
                <mxCell id="137" value="&lt;b&gt;Acknowledgement&lt;/b&gt;" style="text;html=1;align=center;verticalAlign=middle;resizable=0;points=[];autosize=1;strokeColor=none;fillColor=none;fontSize=11;fontColor=#000000;" vertex="1" parent="1">
                    <mxGeometry x="550" y="447" width="110" height="20" as="geometry"/>
                </mxCell>
                <mxCell id="140" value="&lt;b&gt;&lt;font color=&quot;#000000&quot; style=&quot;font-size: 11px&quot;&gt;Request for Login&lt;/font&gt;&lt;/b&gt;" style="text;html=1;align=center;verticalAlign=middle;resizable=0;points=[];autosize=1;strokeColor=none;fillColor=none;" vertex="1" parent="1">
                    <mxGeometry x="252" y="453" width="110" height="20" as="geometry"/>
                </mxCell>
                <mxCell id="142" value="&lt;b&gt;Acknowledgement&lt;/b&gt;" style="text;html=1;align=center;verticalAlign=middle;resizable=0;points=[];autosize=1;strokeColor=none;fillColor=none;fontSize=11;fontColor=#000000;" vertex="1" parent="1">
                    <mxGeometry x="253" y="467" width="110" height="20" as="geometry"/>
                </mxCell>
                <mxCell id="143" value="&lt;b&gt;Acknowledgement&lt;/b&gt;" style="text;html=1;align=center;verticalAlign=middle;resizable=0;points=[];autosize=1;strokeColor=none;fillColor=none;fontSize=11;fontColor=#000000;" vertex="1" parent="1">
                    <mxGeometry x="533" y="326" width="110" height="20" as="geometry"/>
                </mxCell>
                <mxCell id="148" value="&lt;font style=&quot;font-size: 11px&quot;&gt;Manage Delivery Boy&lt;/font&gt;" style="text;html=1;align=center;verticalAlign=middle;resizable=0;points=[];autosize=1;strokeColor=none;fillColor=none;fontSize=15;fontColor=#000000;fontStyle=1" vertex="1" parent="1">
                    <mxGeometry x="166" y="298" width="130" height="20" as="geometry"/>
                </mxCell>
                <mxCell id="149" value="Acknowledgement" style="text;html=1;align=center;verticalAlign=middle;resizable=0;points=[];autosize=1;strokeColor=none;fillColor=none;fontSize=11;fontColor=#000000;fontStyle=1" vertex="1" parent="1">
                    <mxGeometry x="182" y="311" width="110" height="20" as="geometry"/>
                </mxCell>
            </root>
        </mxGraphModel>
    </diagram>
</mxfile>